HIERARCHY
ROOT RootJoint
{
    OFFSET   0.000000   0.000000   0.000000
    CHANNELS 6 Xposition Yposition Zposition Xrotation Yrotation Zrotation
    JOINT pelvis_lowerback
    {
        OFFSET   0.000000   0.093605   0.000000
        CHANNELS 3 Xrotation Yrotation Zrotation
        JOINT lowerback_torso
        {
            OFFSET   0.000000   0.100000   0.000000
            CHANNELS 3 Xrotation Yrotation Zrotation
            JOINT torso_head
            {
                OFFSET   0.000000   0.282350   0.000000
                CHANNELS 3 Xrotation Yrotation Zrotation
                End Site
                {
                    OFFSET   0.000000   0.192650   0.000000
                }
            }
            JOINT rTorso_Clavicle
            {
                OFFSET  -0.001000   0.157500   0.000000
                CHANNELS 3 Xrotation Yrotation Zrotation
                JOINT rShoulder
                {
                    OFFSET  -0.117647   0.000000   0.000000
                    CHANNELS 3 Xrotation Yrotation Zrotation
                    JOINT rElbow
                    {
                        OFFSET  -0.245000   0.000000   0.000000
                        CHANNELS 3 Xrotation Yrotation Zrotation
                        JOINT rWrist
                        {
                            OFFSET  -0.240000   0.000000   0.000000
                            CHANNELS 3 Xrotation Yrotation Zrotation
                            End Site
                            {
                                OFFSET  -0.116353  -0.002500   0.000000
                            }
                        }
                    }
                }
            }
            JOINT lTorso_Clavicle
            {
                OFFSET   0.001000   0.157500   0.000000
                CHANNELS 3 Xrotation Yrotation Zrotation
                JOINT lShoulder
                {
                    OFFSET   0.117647   0.000000   0.000000
                    CHANNELS 3 Xrotation Yrotation Zrotation
                    JOINT lElbow
                    {
                        OFFSET   0.245000   0.000000   0.000000
                        CHANNELS 3 Xrotation Yrotation Zrotation
                        JOINT lWrist
                        {
                            OFFSET   0.240000   0.000000   0.000000
                            CHANNELS 3 Xrotation Yrotation Zrotation
                            End Site
                            {
                                OFFSET   0.116353  -0.002500   0.000000
                            }
                        }
                    }
                }
            }
        }
    }
    JOINT rHip
    {
        OFFSET  -0.100000  -0.051395   0.000000
        CHANNELS 3 Xrotation Yrotation Zrotation
        JOINT rKnee
        {
            OFFSET   0.000000  -0.410000   0.000000
            CHANNELS 3 Xrotation Yrotation Zrotation
            JOINT rAnkle
            {
                OFFSET   0.000000  -0.390000   0.000000
                CHANNELS 3 Xrotation Yrotation Zrotation
                JOINT rToeJoint
                {
                    OFFSET   0.000000  -0.050000   0.130000
                    CHANNELS 3 Xrotation Yrotation Zrotation
                    End Site
                    {
                        OFFSET  -0.010000   0.002000   0.060000
                    }
                }
            }
        }
    }
    JOINT lHip
    {
        OFFSET   0.100000  -0.051395   0.000000
        CHANNELS 3 Xrotation Yrotation Zrotation
        JOINT lKnee
        {
            OFFSET   0.000000  -0.410000   0.000000
            CHANNELS 3 Xrotation Yrotation Zrotation
            JOINT lAnkle
            {
                OFFSET   0.000000  -0.390000   0.000000
                CHANNELS 3 Xrotation Yrotation Zrotation
                JOINT lToeJoint
                {
                    OFFSET   0.000000  -0.050000   0.130000
                    CHANNELS 3 Xrotation Yrotation Zrotation
                    End Site
                    {
                        OFFSET   0.010000   0.002000   0.060000
                    }
                }
            }
        }
    }
}
MOTION
Frames: 10
Frame Time:   0.008333
 -2.443236   0.910185   4.534089   0.642779  -4.161585  -0.368032   7.197985   0.743287   0.002444   0.494765  -0.063380   2.018544  -1.334718  -0.563802   1.188888   2.231285  -0.838987  10.716285   7.523053  11.497907  40.804027  -0.007158  15.206953  -0.002285  10.526881   1.849528   4.366254   1.734747   1.335040 -10.020749  11.021638 -13.161142 -42.875547  -0.000801 -19.595044  -0.002068   9.647893  -4.005789  -5.490030  -9.304443   0.952206   2.571119  19.317046   0.001354   0.003698 -10.331416   1.226331  -3.431858  -0.489936   0.000086  -0.000157 -13.912430  -1.506589   5.747229  62.513268   0.000239   0.000189  -5.801498   4.681211  -2.359111  -4.813075  -0.003049   0.004878
 -2.443896   0.910862   4.540895   0.480144  -4.410593  -0.214999   7.283016   0.963547  -0.098584   0.431774  -0.002707   1.849159  -1.302466  -0.593256   1.222531   2.104913  -0.720118  10.627945   7.269511  11.772311  40.641870  -0.007408  15.636214  -0.001740  10.556156   1.814287   4.249851   1.660463   1.440237  -9.987468  10.958781 -13.054788 -42.852329  -0.000879 -19.767622  -0.002255   9.652621  -4.003908  -5.405251  -8.444403   1.039083   2.404128  18.875659   0.001215   0.003792 -10.566640   1.444008  -3.375373  -0.509845   0.000079  -0.000125 -14.795475  -1.500528   5.569414  61.940823   0.000832   0.000787  -6.480631   4.959508  -2.153108  -4.607661  -0.002637   0.003992
 -2.444498   0.911450   4.547670   0.339125  -4.623865  -0.071553   7.359920   1.173373  -0.178382   0.358923   0.057715   1.685267  -1.271734  -0.620580   1.253989   1.968409  -0.596669  10.520161   7.019846  12.041796  40.477864  -0.007577  16.047494  -0.001373  10.578886   1.821839   4.114385   1.581769   1.532103  -9.952699  10.891336 -12.963375 -42.835285  -0.000946 -19.935327  -0.002392   9.654505  -4.032941  -5.313101  -7.608940   1.110741   2.238196  18.440066   0.001065   0.003762 -10.806849   1.635764  -3.319969  -0.526988   0.000071  -0.000100 -15.685200  -1.502642   5.411903  61.200131   0.001392   0.001311  -7.123987   5.216587  -1.957611  -4.418761  -0.002220   0.003290
 -2.445055   0.911921   4.554446   0.201282  -4.823966   0.058013   7.436352   1.381210  -0.245397   0.286174   0.124594   1.532052  -1.242290  -0.645751   1.284671   1.827325  -0.467978  10.404026   6.778426  12.302494  40.313598  -0.007619  16.436131  -0.001131  10.599136   1.852816   3.956894   1.503014   1.613013  -9.917945  10.824300 -12.881998 -42.818673  -0.000994 -20.094473  -0.002466   9.655017  -4.077287  -5.218989  -6.788752   1.177158   2.079462  18.030583   0.000916   0.003647 -11.062005   1.813586  -3.261247  -0.542903   0.000064  -0.000080 -16.574628  -1.509230   5.275492  60.437881   0.001826   0.001694  -7.728316   5.454508  -1.772780  -4.246545  -0.001845   0.002719
 -2.445575   0.912275   4.561254   0.062826  -5.021947   0.175125   7.509133   1.587771  -0.305232   0.216111   0.198599   1.389050  -1.213914  -0.668849   1.314296   1.686163  -0.337729  10.287205   6.547204  12.552777  40.153666  -0.007533  16.802059  -0.000951  10.618039   1.897067   3.785716   1.428346   1.688022  -9.883756  10.761067 -12.806455 -42.801842  -0.001019 -20.243521  -0.002481   9.655387  -4.124754  -5.124516  -5.979918   1.243591   1.927111  17.649736   0.000776   0.003487 -11.334288   1.983880  -3.197866  -0.558150   0.000058  -0.000064 -17.451732  -1.519205   5.155708  59.696166   0.002161   0.001991  -8.294547   5.674981  -1.598266  -4.090360  -0.001522   0.002240
 -2.446061   0.912518   4.568110  -0.074727  -5.222241   0.281448   7.574722   1.791620  -0.360708   0.148071   0.278255   1.255332  -1.187114  -0.690104   1.342465   1.548207  -0.209000  10.174150   6.327404  12.791592  40.001316  -0.007334  17.145872  -0.000792  10.635889   1.949925   3.609171   1.360023   1.760083  -9.850512  10.703359 -12.734417 -42.785089  -0.001021 -20.382036  -0.002445   9.656181  -4.168738  -5.031715  -5.182180   1.312197   1.779761  17.295309   0.000649   0.003307 -11.623117   2.149528  -3.129713  -0.572922   0.000053  -0.000051 -18.308691  -1.532002   5.049223  58.988120   0.002418   0.002237  -8.824576   5.879427  -1.433654  -3.949023  -0.001251   0.001834
 -2.446516   0.912656   4.575018  -0.208485  -5.426339   0.378292   7.630962   1.991046  -0.413153   0.080912   0.361573   1.130172  -1.162397  -0.709732   1.368971   1.415551  -0.083858  10.067216   6.119624  13.018379  39.858277  -0.007047  17.468411  -0.000640  10.652812   2.008580   3.433180   1.298702   1.830429  -9.818502  10.651621 -12.664893 -42.768750  -0.001003 -20.510267  -0.002367   9.657566  -4.206477  -4.942045  -4.396881   1.383686   1.636288  16.964280   0.000533   0.003121 -11.927021   2.311797  -3.057056  -0.587281   0.000049  -0.000041 -19.140616  -1.547045   4.953817  58.317704   0.002607   0.002446  -9.320490   6.069101  -1.278523  -3.821252  -0.001026   0.001486
 -2.446853   0.912774   4.582072  -0.355297  -5.657508   0.536964   7.680458   2.175702  -0.482584   0.053518   0.430423   0.958979  -1.176995  -0.701898   1.384875   1.295714   0.044837   9.945952   5.843630  13.277315  39.737599  -0.007170  17.877710  -0.000345  10.647427   1.969625   3.313626   1.235331   1.918022  -9.787204  10.562813 -12.551283 -42.820592  -0.000859 -20.565431  -0.002083   9.662894  -4.254020  -4.770539  -3.620489   1.460829   1.411540  16.699767   0.000415   0.002935 -12.275424   2.496536  -2.976130  -0.599267   0.000044  -0.000033 -19.667318  -1.542709   4.800663  56.666207   0.004224   0.004249  -9.598158   6.220013  -1.163741  -3.694787  -0.000762   0.001110
 -2.447162   0.912729   4.589105  -0.476780  -5.851877   0.663418   7.720650   2.342999  -0.510106   0.017844   0.495989   0.799427  -1.192520  -0.695762   1.400133   1.166416   0.177460   9.810284   5.573454  13.531978  39.613744  -0.007209  18.270292  -0.000158  10.637003   1.981143   3.176377   1.179738   1.998369  -9.770221  10.480374 -12.447327 -42.884831  -0.000730 -20.616293  -0.001833   9.668336  -4.289558  -4.621797  -2.888165   1.517582   1.217605  16.473644   0.000311   0.002677 -12.644070   2.657592  -2.888552  -0.612234   0.000040  -0.000026 -20.186638  -1.560420   4.693638  54.871185   0.005536   0.005535  -9.863504   6.359130  -1.055895  -3.550974  -0.000511   0.000818
 -2.447454   0.912541   4.596146  -0.591013  -6.026017   0.763267   7.762400   2.507006  -0.518555  -0.017879   0.564998   0.656010  -1.207007  -0.690295   1.417386   1.034973   0.311511   9.674166   5.314376  13.776892  39.490147  -0.007114  18.640483  -0.000080  10.625700   2.014364   3.020405   1.128362   2.071744  -9.763367  10.402896 -12.352338 -42.951630  -0.000616 -20.664171  -0.001618   9.672900  -4.324396  -4.492473  -2.176372   1.563732   1.048158  16.277843   0.000226   0.002401 -13.029932   2.803451  -2.793888  -0.626376   0.000039  -0.000021 -20.712615  -1.587884   4.620296  53.118418   0.006349   0.006291 -10.114021   6.488682  -0.954706  -3.416478  -0.000303   0.000605
